<?xml version="1.0" encoding="UTF-8" standalone="no"?>
<!-- Created with Inkscape (http://www.inkscape.org/) -->

<svg
   xmlns:dc="http://purl.org/dc/elements/1.1/"
   xmlns:cc="http://creativecommons.org/ns#"
   xmlns:rdf="http://www.w3.org/1999/02/22-rdf-syntax-ns#"
   xmlns:svg="http://www.w3.org/2000/svg"
   xmlns="http://www.w3.org/2000/svg"
   xmlns:sodipodi="http://sodipodi.sourceforge.net/DTD/sodipodi-0.dtd"
   xmlns:inkscape="http://www.inkscape.org/namespaces/inkscape"
   width="512"
   height="512"
   id="svg2"
   version="1.1"
   inkscape:version="0.48.3.1 r9886"
   sodipodi:docname="logo.svg">
  <defs
     id="defs4" />
  <sodipodi:namedview
     id="base"
     pagecolor="#ffffff"
     bordercolor="#666666"
     borderopacity="1.0"
     inkscape:pageopacity="0.0"
     inkscape:pageshadow="2"
     inkscape:zoom="0.7"
     inkscape:cx="423.13254"
     inkscape:cy="167.10866"
     inkscape:document-units="px"
     inkscape:current-layer="layer1"
     showgrid="false"
     inkscape:window-width="1600"
     inkscape:window-height="851"
     inkscape:window-x="0"
     inkscape:window-y="26"
     inkscape:window-maximized="1"
     showguides="true"
     inkscape:guide-bbox="true" />
  <metadata
     id="metadata7">
    <rdf:RDF>
      <cc:Work
         rdf:about="">
        <dc:format>image/svg+xml</dc:format>
        <dc:type
           rdf:resource="http://purl.org/dc/dcmitype/StillImage" />
        <dc:title />
      </cc:Work>
    </rdf:RDF>
  </metadata>
  <g
     inkscape:label="Layer 1"
     inkscape:groupmode="layer"
     id="layer1"
     transform="translate(0,-540.36218)">
    <g
       id="g3822"
       style="fill:#cc0000;fill-opacity:1"
       transform="matrix(1.1541635,0,0,1.1541635,-45.753678,-109.62716)">
      <path
         sodipodi:nodetypes="cccc"
         inkscape:connector-curvature="0"
         id="rect3050"
         d="m 115.00001,776.64789 c 20.88775,-21.47278 48.4241,-22.89136 74.28571,-5 -39.53883,4.33717 -52.74009,11.82431 -72.85714,50.71429 -6.13215,-15.2381 -6.72475,-30.47619 -1.42857,-45.71429 z"
         style="fill:#cc0000;fill-opacity:1;stroke:none" />
      <path
         sodipodi:nodetypes="cccc"
         inkscape:connector-curvature="0"
         id="rect3050-2"
         d="m 144.93557,878.58695 c 3.04872,-29.80073 15.90081,-51.5763 55.13986,-50.02961 -28.30815,27.94242 -31.1541,40.57816 -23.50193,84.27069 -14.16112,-6.89476 -25.09182,-17.82755 -31.63793,-34.24108 z"
         style="fill:#cc0000;fill-opacity:1;stroke:none" />
      <path
         sodipodi:nodetypes="cccc"
         inkscape:connector-curvature="0"
         id="rect3050-2-0"
         d="m 119.42236,835.97002 c 7.91514,-28.89167 35.62543,-49.1508 70.4837,-38.12229 -32.52358,22.89863 -46.8937,17.97448 -52.14839,75.31517 -11.69657,-12.39763 -15.61575,-20.50954 -18.33531,-37.19288 z"
         style="fill:#cc0000;fill-opacity:1;stroke:none" />
      <path
         sodipodi:nodetypes="ccccccc"
         inkscape:connector-curvature="0"
         id="rect3089"
         d="m 167.85715,668.07647 17.89179,28.41797 c 31.76595,-5.23244 73.92786,13.8966 82.82248,20.15346 32.46911,-3.47139 44.34436,23.26735 39.46344,34.17069 -11.30596,-13.83147 -17.87239,-17.73176 -39.46343,-14.88498 -56.81728,-47.16964 -111.96541,-24.7105 -150.71428,15 7.54841,-32.4888 25.31007,-63.70064 50,-82.85714 z"
         style="fill:#cc0000;fill-opacity:1;stroke:none" />
      <path
         sodipodi:nodetypes="cccccc"
         inkscape:connector-curvature="0"
         id="rect3092"
         d="m 188.57143,113.42858 c 58.01029,-45.388809 171.67061,-16.36577 199.2857,42.85714 l -24.28571,6.42857 c -17.90162,-4.59797 -36.1197,-8.56302 -57.76783,-5.66797 C 284.80962,147.28474 262.27801,139.57334 230,144.85715 z"
         style="fill:#cc0000;fill-opacity:1;stroke:none"
         transform="translate(0,540.36218)" />
      <path
         sodipodi:nodetypes="ccccc"
         inkscape:connector-curvature="0"
         id="rect3095"
         d="m 240.71428,332.71429 c 27.81178,21.07334 59.36272,32.17562 98.57143,22.85715 -0.44113,9.7619 2.55423,19.52381 -12.14286,29.28571 -31.19355,17.76958 -68.81052,18.41005 -111.42857,5.71429 -6.12961,-31.28608 2.45805,-47.37256 25,-57.85715 z"
         style="fill:#cc0000;fill-opacity:1;stroke:none"
         transform="translate(0,540.36218)" />
      <path
         sodipodi:nodetypes="ccccccc"
         inkscape:connector-curvature="0"
         id="rect3098"
         d="m 357.14285,750.93361 c 7.94101,-14.11711 18.54298,-16.06629 29.28574,-8.57142 0.0826,-9.04701 -4.35837,-19.71734 15.43634,-23.38832 23.33522,22.14901 16.58556,63.02503 14.56366,95.53117 -6.14385,-13.2158 -8.99306,-24.99089 -22.14287,-34.28571 l -7.38159,-23.12558 c -13.71982,-6.40589 -25.94597,7.29457 -29.76128,-6.16014 z"
         style="fill:#cc0000;fill-opacity:1;stroke:none" />
      <path
         sodipodi:nodetypes="cccc"
         inkscape:connector-curvature="0"
         id="rect3101"
         d="m 366.42857,866.64789 c 10.7354,1.73088 15.71429,13.26037 15.71429,21.42858 l -15,13.57142 c 2.00798,-12.21167 2.93974,-26.56301 -0.71429,-35 z"
         style="fill:#cc0000;fill-opacity:1;stroke:none" />
      <path
         sodipodi:nodetypes="cccc"
         inkscape:connector-curvature="0"
         id="rect3101-9"
         d="m 379.99999,850.57646 c 10.7354,1.73088 15.71429,13.26037 15.71429,21.42858 l -15,13.57142 c 2.00798,-12.21167 2.93974,-26.56301 -0.71429,-35 z"
         style="fill:#cc0000;fill-opacity:1;stroke:none" />
      <path
         sodipodi:nodetypes="cccc"
         inkscape:connector-curvature="0"
         id="rect3101-9-6"
         d="M 390.71428,832.71932 C 401.44968,834.4502 405,840.2654 405,848.43361 l -12.85714,24.28571 c 2.00798,-12.21167 2.22545,-31.56301 -1.42858,-40 z"
         style="fill:#cc0000;fill-opacity:1;stroke:none" />
      <path
         sodipodi:nodetypes="cccccccccc"
         inkscape:connector-curvature="0"
         id="rect3140"
         d="m 275,785.93361 c -0.24408,-7.56731 15.87902,8.86331 26.35069,7.2822 52.80795,7.76591 15.62253,-18.81886 10.25821,-32.22184 4.88406,-6.36867 21.876,-4.70045 33.98844,7.7332 18.08057,-7.26398 28.26779,-2.80643 28.00146,6.87422 -19.31708,10.53478 -21.81637,9.84572 -28.62177,24.12787 11.5602,10.04919 33.62966,-4.70677 19.3087,16.20435 -15.90249,11.42315 -22.15053,25.08145 -28.57143,53.57143 -20.30772,17.32948 -50.6358,15.99247 -66.42858,-8.57143 5.68264,-25.31662 6.43446,-51.96822 5.71428,-75 z"
         style="fill:#cc0000;fill-opacity:1;stroke:none" />
      <path
         sodipodi:nodetypes="ssss"
         inkscape:connector-curvature="0"
         id="rect3143"
         d="m 243.01298,737.7812 c 0.36746,-0.81367 35.80133,13.31365 60.75397,28.20351 2.10768,1.2577 -2.02961,7.27767 -3.29777,6.58345 -25.90984,-14.18363 -58.05505,-33.46096 -57.4562,-34.78696 z"
         style="fill:#cc0000;fill-opacity:1;stroke:none" />
      <path
         sodipodi:nodetypes="ssss"
         inkscape:connector-curvature="0"
         id="rect3143-2"
         d="m 216.92231,749.68984 c 0.36746,-0.81367 57.40847,9.47436 82.36111,24.36422 2.10768,1.2577 -2.53822,6.06495 -3.83349,5.42273 -26.44555,-13.1122 -79.12647,-28.46095 -78.52762,-29.78695 z"
         style="fill:#cc0000;fill-opacity:1;stroke:none" />
      <path
         sodipodi:nodetypes="ssss"
         inkscape:connector-curvature="0"
         id="rect3143-2-8"
         d="m 228.28381,768.62257 c 0.36746,-0.81367 42.31918,1.17079 68.96825,13.11422 2.23976,1.0038 -4.00929,5.69251 -5.35135,5.15487 -26.7134,-10.70148 -64.21575,-16.94309 -63.6169,-18.26909 z"
         style="fill:#cc0000;fill-opacity:1;stroke:none" />
      <path
         sodipodi:nodetypes="ssss"
         inkscape:connector-curvature="0"
         id="rect3143-2-8-1"
         d="m 397.30993,776.32195 c -0.36746,-0.81367 -19.19418,2.51007 -24.95039,5.97136 -2.10342,1.26482 0.99551,2.7086 2.31563,2.11916 4.57054,-2.04077 23.23361,-6.76452 22.63476,-8.09052 z"
         style="fill:#cc0000;fill-opacity:1;stroke:none" />
      <path
         sodipodi:nodetypes="ssss"
         inkscape:connector-curvature="0"
         id="rect3143-2-8-1-6"
         d="m 403.49381,784.60569 c -0.36746,-0.81367 -22.49775,-0.25778 -29.95039,3.73922 -2.16298,1.16005 0.93559,2.55005 2.31563,2.11916 5.10626,-1.59434 28.23361,-4.53238 27.63476,-5.85838 z"
         style="fill:#cc0000;fill-opacity:1;stroke:none" />
      <path
         sodipodi:nodetypes="ssss"
         inkscape:connector-curvature="0"
         id="rect3143-2-8-1-6-0"
         d="m 411.7259,793.3034 c -0.36746,-0.81367 -27.40847,-3.07028 -36.78075,-0.18935 -2.34608,0.72116 0.98024,3.75541 2.36028,3.32452 5.10626,-1.59434 35.01932,-1.80917 34.42047,-3.13517 z"
         style="fill:#cc0000;fill-opacity:1;stroke:none" />
    </g>
    <text
       xml:space="preserve"
       style="font-size:46.16654205px;font-style:normal;font-weight:normal;line-height:125%;letter-spacing:0px;word-spacing:0px;fill:#000000;fill-opacity:1;stroke:none;font-family:Dina ttf 10px;-inkscape-font-specification:Dina ttf 10px"
       x="-186.74953"
       y="801.9975"
       id="text3271"
       sodipodi:linespacing="125%"><tspan
         sodipodi:role="line"
         id="tspan3273"
         x="-186.74953"
         y="801.9975" /></text>
    <g
       transform="matrix(0.99797302,0.06363843,-0.06363843,0.99797302,49.092187,-14.48934)"
       style="font-size:64px;font-style:normal;font-variant:normal;font-weight:normal;font-stretch:normal;line-height:125%;letter-spacing:0px;word-spacing:0px;fill:#cc0000;fill-opacity:1;stroke:none;font-family:CollegiateHeavyOutline;-inkscape-font-specification:CollegiateHeavyOutline"
       id="text3017">
      <path
         d="m 178.47868,614.89748 -1.76734,-5.07719 2.53859,-0.88368 -10.07808,-28.95207 -2.5386,0.88367 -1.7463,-5.01674 22.84735,-7.95306 7.641,3.84579 3.13494,9.00597 -2.4403,5.25429 5.17548,2.60327 3.93445,11.30279 2.53859,-0.88367 1.76735,5.07719 -9.54995,3.32429 -5.23892,-15.05024 -3.58524,-1.73373 -9.24774,3.2191 4.39733,12.63253 2.5386,-0.88367 1.76734,5.07719 -12.08855,4.20797 m 12.57836,-32.97598 -1.99878,-5.74206 -3.62731,-1.85462 -9.24774,3.2191 3.91341,11.24235 9.24774,-3.2191 1.71268,-3.64567 m -2.86415,2.28456 -7.13224,2.4827 -2.7983,-8.03888 7.13224,-2.4827 2.363,1.14268 1.55695,4.47276 -1.12165,2.42344 m 4.49289,27.50793 -2.86142,-8.22022 -2.59904,0.90472 -3.30325,-9.48951 7.13224,-2.48271 c 0.5432,0.26272 0.95061,0.45973 1.22224,0.59105 0.25756,0.0911 0.6308,0.2548 1.11972,0.4912 l 5.57555,16.01732 12.63254,-4.39733 -2.86142,-8.22021 -2.59904,0.90472 -3.59781,-10.33571 -4.36066,-2.20924 2.04628,-4.43947 -3.57678,-10.27526 -8.86324,-4.43684 -25.02329,8.71049 2.86142,8.22021 2.53859,-0.88367 8.96297,25.74861 -2.53859,0.88367 2.86142,8.22022 15.23157,-5.30204 m -16.03799,7.07361 -3.76613,-10.81925 2.53859,-0.88367 -8.0793,-23.21001 -2.53859,0.88367 -3.76614,-10.81925 26.83658,-9.34169 9.92251,4.94908 3.97653,11.42368 -1.71268,3.64567 3.60627,1.79417 3.36637,9.67084 2.5386,-0.88367 3.76613,10.81925 -15.17113,5.281 -5.82803,-16.74264 c -0.36625,-0.14356 -0.82798,-0.36684 -1.38521,-0.66985 l -5.31896,1.85151 2.41958,6.95091 2.59904,-0.90471 3.76613,10.81925 -17.77016,6.18571 m 11.20809,-37.10712 -1.15719,-3.32436 -1.40624,-0.73029 -5.31897,1.85151 1.89359,5.43985 5.31896,-1.85151 0.66985,-1.3852"
         style="fill:#cc0000;fill-opacity:1"
         id="path3018" />
      <path
         d="m 237.23744,571.75432 -2.53718,0.34106 10.90166,22.49213 1.45888,-0.1961 0.54569,4.05948 -9.57786,1.28748 -0.54568,-4.05949 1.96631,-0.26432 -2.6532,-5.326 -9.51443,1.27895 -1.08913,5.82906 1.90288,-0.25579 0.54569,4.05948 -9.57786,1.28748 -0.54568,-4.05949 1.5223,-0.20463 4.57514,-24.57256 -2.28347,0.30695 -0.55421,-4.12292 14.90594,-2.00368 0.55421,4.12291 m -1.78503,15.54438 -5.31119,-11.16798 -2.30035,12.19113 7.61154,-1.02315 m -5.6681,-0.85248 c 0.19617,-1.10261 0.36996,-2.05155 0.52138,-2.84683 0.1457,-0.83753 0.31541,-1.65677 0.50911,-2.45774 0.35034,0.68479 0.6202,1.25122 0.8096,1.69929 0.23166,0.44244 0.41536,0.84825 0.55111,1.21743 0.17231,0.32126 0.3235,0.64534 0.45357,0.97224 0.12434,0.28466 0.27553,0.60874 0.45357,0.97224 l -3.29834,0.44337 m 8.20807,-20.60518 -18.01398,2.42147 0.98052,7.2944 1.64917,-0.22169 c -0.38419,1.94589 -0.73747,3.8015 -1.05981,5.56682 -0.28576,1.7174 -0.59265,3.43762 -0.92069,5.16066 -0.29144,1.67511 -0.60117,3.37418 -0.92921,5.09723 -0.32804,1.72307 -0.66585,3.53355 -1.01343,5.43143 l -1.90289,0.25579 0.98053,7.29439 12.6859,-1.70527 -0.98053,-7.29439 -1.26859,0.17053 c 0.11479,-0.74728 0.20026,-1.23232 0.25643,-1.45514 0.0504,-0.26507 0.11069,-0.61757 0.18072,-1.0575 l 7.23097,-0.972 c 0.23733,0.48471 0.44502,0.90882 0.62306,1.27233 0.17799,0.36354 0.35317,0.70592 0.52552,1.02715 l -1.33202,0.17905 0.98053,7.29439 12.74933,-1.71379 -0.98053,-7.29439 -1.96631,0.26432 c -1.61924,-3.39857 -3.1974,-6.65198 -4.73451,-9.76026 -1.50055,-3.1562 -3.03359,-6.39416 -4.59911,-9.71388 l 1.83945,-0.24726 -0.98052,-7.29439 m 2.50012,8.51079 -1.39545,0.18758 c 1.37614,2.87162 2.69581,5.64317 3.95901,8.31468 1.25746,2.62926 2.65192,5.47687 4.1834,8.54282 l 2.34689,-0.31547 1.33863,9.95843 -15.41337,2.0719 -1.30453,-9.70472 -3.55205,0.47748 1.30453,9.70471 -15.34994,2.06337 -1.33863,-9.95843 2.28346,-0.30695 c 0.32803,-1.72305 0.61254,-3.28958 0.85351,-4.6996 0.27757,-1.45796 0.53684,-2.89195 0.77781,-4.30197 0.28325,-1.41567 0.56082,-2.87364 0.83271,-4.37393 0.31417,-1.50592 0.64789,-3.18669 1.00117,-5.04232 l -1.20517,0.162 -1.34716,-10.02186 20.67802,-2.77959 1.34716,10.02187"
         style="fill:#cc0000;fill-opacity:1"
         id="path3020" />
      <path
         d="m 274.8497,571.8366 -5.88161,-0.27426 -1.10302,23.65429 2.1097,0.0984 -0.19377,4.15549 -9.8453,-0.4591 0.19377,-4.15549 2.04578,0.0954 1.10303,-23.6543 -5.94554,-0.27724 -0.10136,2.17363 -3.96369,-0.18483 0.29513,-6.32912 25.50828,1.18948 -0.29513,6.32912 -4.02763,-0.18781 0.10136,-2.17364 m -1.71022,3.70036 7.16022,0.33389 0.44419,-9.52565 -28.64087,-1.33556 -0.4442,9.52565 7.09629,0.33091 0.0984,-2.10971 2.81294,0.13117 -0.95098,20.39384 -2.10971,-0.0984 -0.34283,7.35201 12.97789,0.60518 0.34284,-7.35201 -2.04578,-0.0954 0.95099,-20.39384 2.74901,0.12819 -0.0984,2.10971 m -1.24283,-0.82679 -0.1918,-0.009 -0.82578,17.70876 2.10971,0.0984 -0.46804,10.03709 -15.59905,-0.7274 0.46804,-10.03709 2.04578,0.0954 0.82578,-17.70875 -0.19179,-0.009 -0.0984,2.10971 -9.71744,-0.45314 0.5694,-12.21073 31.26203,1.45779 -0.5694,12.21073 -9.71744,-0.45314 0.0984,-2.1097"
         style="fill:#cc0000;fill-opacity:1"
         id="path3022" />
      <path
         d="m 307.50289,605.80591 -20.56337,-4.52802 0.88083,-4.00017 1.93759,0.42665 5.10606,-23.18848 -1.93758,-0.42665 0.89459,-4.06267 20.56337,4.52802 -1.19738,5.43773 -3.75016,-0.82578 0.30279,-1.37506 -9.4379,-2.07821 -2.10574,9.5629 4.93771,1.08728 0.30279,-1.37506 3.81266,0.83954 -1.51393,6.87529 -3.81266,-0.83954 0.31655,-1.43756 -4.93771,-1.08727 -2.10574,9.5629 9.4379,2.07821 0.30279,-1.37506 3.75016,0.82578 -1.18362,5.37523 m 2.97902,-6.68375 -6.68779,-1.47264 -0.31654,1.43756 -6.43778,-1.41758 1.41759,-6.43778 2.00008,0.44042 -0.31654,1.43756 6.68778,1.47264 2.20208,-10.00042 -6.68779,-1.47264 -0.30278,1.37505 -2.00009,-0.44041 1.41759,-6.43777 6.43777,1.41758 -0.30278,1.37506 6.68778,1.47264 1.88553,-8.56286 -23.501,-5.17488 -1.58274,7.1878 2.00008,0.44042 -4.41791,20.06335 -2.00009,-0.44042 -1.58274,7.18781 23.501,5.17488 1.89929,-8.62537 m -0.93826,10.21318 -26.0011,-5.7254 2.16078,-9.81291 2.00009,0.44041 3.82611,-17.37573 -2.00009,-0.44042 2.17455,-9.87542 26.0011,5.7254 -2.46357,11.18798 -9.18789,-2.02316 0.28902,-1.31256 -3.93766,-0.86707 -0.50923,2.3126 8.68786,1.91306 -2.79388,12.68803 -8.68787,-1.91305 -0.52299,2.3751 3.93766,0.86707 0.31655,-1.43756 9.18789,2.02315 -2.47733,11.25048"
         style="fill:#cc0000;fill-opacity:1"
         id="path3024" />
    </g>
    <g
       transform="matrix(0.99814199,-0.0609308,0.0609308,0.99814199,-41.584987,14.777375)"
       style="font-size:64px;font-style:normal;font-variant:normal;font-weight:normal;font-stretch:normal;line-height:125%;letter-spacing:0px;word-spacing:0px;fill:#cc0000;fill-opacity:1;stroke:none;font-family:CollegiateHeavyOutline;-inkscape-font-specification:CollegiateHeavyOutline"
       id="text3025">
      <path
         d="m 118.96182,969.80398 1.88576,-4.06378 -1.2571,-3.82888 -7.89533,-3.66378 -3.73554,1.51209 -10.479483,22.58298 1.31098,3.71278 7.895333,3.66377 3.68166,-1.39597 1.75107,-3.77351 6.67621,3.09805 -2.61314,5.63123 -7.92716,3.09475 -15.558455,-7.2198 -2.696714,-8.02468 12.230549,-26.35649 7.86911,-3.12168 15.55846,7.21979 2.75476,8.05162 -2.77477,5.97956 -6.6762,-3.09805 m 7.36907,5.254 3.77153,-8.12756 -3.16343,-9.29958 -16.71954,-7.75858 -9.144,3.5884 -12.823223,27.63368 3.16343,9.29958 16.719543,7.75858 9.144,-3.58839 3.6099,-7.77923 -9.52085,-4.41809 -2.1821,4.70237 c -0.56665,0.20743 -0.99162,0.363 -1.2749,0.46672 -0.26538,0.065 -0.63368,0.19984 -1.10492,0.40449 l -6.73426,-3.12499 c -0.16874,-0.54866 -0.333292,-0.95428 -0.493651,-1.21685 -0.103733,-0.28331 -0.229582,-0.67096 -0.377548,-1.16297 l 9.940689,-21.42191 2.40676,-0.92925 6.73426,3.12498 0.84426,2.43787 -2.3168,4.99264 9.52085,4.41809 m -11.33265,-3.70663 2.64007,-5.68929 -0.502,-1.50294 -5.63124,-2.61314 -1.41377,0.61394 -9.4019,20.26083 c 0.0622,0.16999 0.13481,0.36831 0.2178,0.59496 0.0829,0.22665 0.16732,0.50098 0.25309,0.82299 l 5.63123,2.61314 c 0.22663,-0.083 0.4443,-0.14659 0.65301,-0.19086 0.22663,-0.083 0.49059,-0.19567 0.79188,-0.33809 l 2.50538,-5.39902 11.95911,5.54955 -4.44502,9.5789 -10.19087,4.01983 -17.764508,-8.2435 -3.509864,-10.37756 13.308132,-28.67865 10.19087,-4.01982 17.76451,8.24349 3.50986,10.37756 -4.60666,9.92722 -11.95911,-5.54954"
         id="path3027"
         style="" />
      <path
         d="m 130.62847,1000.0284 1.94806,0.6319 -1.26389,3.8962 -9.4968,-3.0808 1.26389,-3.89609 2.00894,0.65169 7.32663,-22.58535 -2.00893,-0.65169 1.28364,-3.957 9.4968,3.08074 -1.28364,3.957 -1.94806,-0.63195 -2.74502,8.4619 10.10557,3.27822 2.74502,-8.46189 -2.00894,-0.6517 1.28364,-3.957 9.49681,3.08074 -1.28364,3.95701 -2.00894,-0.6517 -7.32664,22.58537 2.00894,0.6517 -1.26389,3.8961 -9.49681,-3.0807 1.2639,-3.8962 2.00894,0.6517 3.08074,-9.49678 -10.10558,-3.27822 -3.08074,9.4968 m 4.02833,-7.44004 7.18348,2.3303 -2.07357,6.39204 -2.00894,-0.6517 -2.27106,7.0009 12.47977,4.0484 2.27106,-7.0008 -2.00894,-0.6517 6.33922,-19.54154 2.00894,0.6517 2.27106,-7.00085 -12.47977,-4.04841 -2.27106,7.00085 2.00894,0.65169 -1.75761,5.41805 -7.18348,-2.3303 1.75761,-5.41805 2.00893,0.65169 2.27106,-7.00085 -12.47977,-4.04841 -2.27106,7.00085 2.00894,0.6517 -6.33922,19.5415 -2.00894,-0.6517 -2.27106,7.00088 12.47978,4.0484 2.27106,-7.00087 -2.00894,-0.65169 2.07357,-6.39208 m -0.38044,5.52838 2.00894,0.65169 -3.10049,9.55767 -15.03661,-4.8778 3.10049,-9.55771 2.00894,0.6517 5.49004,-16.92379 -2.00894,-0.6517 3.12024,-9.61856 15.03661,4.87784 -3.12024,9.61856 -2.00894,-0.65169 -0.90843,2.80034 4.62665,1.50087 0.90843,-2.80034 -2.00894,-0.6517 3.12023,-9.61855 14.97573,4.85809 -3.12023,9.61856 -1.94807,-0.63195 -5.49004,16.92383 1.94807,0.6319 -3.10049,9.5577 -14.97573,-4.8581 3.10049,-9.55768 2.00894,0.65169 1.24414,-3.83525 -4.62665,-1.50087 -1.24414,3.83525"
         id="path3029"
         style="" />
      <path
         d="m 154.84695,1011.6603 1.04781,-3.9597 1.60863,0.4257 6.07402,-22.95399 -1.60864,-0.42567 1.06418,-4.02158 7.48633,1.98101 -1.06418,4.02158 -1.60863,-0.42567 -6.07402,22.95392 1.60864,0.4257 -1.04781,3.9597 -7.48633,-1.981 m 8.23619,3.9007 1.88278,-7.1151 -1.60863,-0.4257 5.25542,-19.86039 1.60863,0.42568 1.88278,-7.11511 -9.83741,-2.60315 -1.88278,7.11511 1.60864,0.42567 -5.25542,19.86039 -1.60863,-0.4256 -1.88278,7.1151 9.8374,2.6031 m -11.17114,-1.5658 2.5704,-9.7137 1.60863,0.4257 4.55142,-17.19999 -1.60863,-0.42568 2.58678,-9.77553 11.75539,3.11068 -2.58678,9.77554 -1.54676,-0.4093 -4.55142,17.19998 1.54676,0.4093 -2.5704,9.7137 -11.75539,-3.1107"
         id="path3031"
         style="" />
      <path
         d="m 190.87337,997.49081 0.72649,-3.37878 -1.65651,-2.64737 -6.44471,-1.3857 -2.53568,1.74599 -4.04949,18.83355 1.59394,2.6339 6.44471,1.3857 2.59825,-1.7325 0.68613,-3.1911 5.50616,1.1839 -1.02246,4.7554 -5.43803,3.6749 -12.76428,-2.7445 -3.44691,-5.5853 4.73561,-22.02468 5.43802,-3.67498 12.76428,2.7445 3.44692,5.58538 -1.07628,5.0056 -5.50616,-1.18391 m 6.67151,3.07099 1.54714,-7.1955 -4.12109,-6.71227 -14.01568,-3.01358 -6.51581,4.42519 -5.00468,23.27606 4.10764,6.7748 14.01568,3.0136 6.52926,-4.4878 1.49333,-6.9452 -8.50952,-1.8297 -0.88792,4.1296 -1.4579,0.9958 -5.25588,-1.1301 c -0.30952,-0.5902 -0.62059,-1.0717 -0.93322,-1.4444 l 3.79388,-17.64477 1.39532,-1.00924 5.38102,1.157 c 0.19645,0.30412 0.33483,0.5739 0.41515,0.80935 0.12198,0.24446 0.26485,0.49339 0.42859,0.74678 l -0.91483,4.25476 8.50952,1.82962 m -10.04344,-0.78472 1.11663,-5.19331 c -0.0655,-0.10134 -0.1236,-0.13565 -0.17426,-0.10293 -2e-5,2e-5 -0.0447,-0.0969 -0.13389,-0.29064 l -4.31733,-0.92829 -0.53217,0.34382 -3.5248,16.39337 c 0.0982,0.152 0.20386,0.3711 0.31691,0.6573 l 4.19219,0.9014 0.62164,-0.4555 1.03592,-4.8179 11.01232,2.3678 -1.91039,8.8849 -7.36552,5.028 -15.14194,-3.2557 -4.58535,-7.5976 5.26029,-24.46491 7.30295,-5.04149 15.14194,3.25574 4.64792,7.6111 -1.95075,9.07266 -11.01231,-2.36782"
         id="path3033"
         style="" />
      <path
         d="m 209.34314,990.88547 12.91301,1.92698 3.79524,5.35479 -3.32498,22.28126 -5.19324,4.0135 -12.91301,-1.927 -3.79524,-5.3548 3.32499,-22.28126 5.19323,-4.01347 m 9.07077,5.55967 -6.5198,-0.97293 -2.41948,1.90375 -2.84324,19.05304 1.75826,2.5272 6.51981,0.9729 2.48278,-1.8943 2.84323,-19.05303 -1.82156,-2.53663 m 0.19848,3.00622 -2.64487,17.72374 -1.3916,1.0865 -5.31713,-0.7935 c -0.34644,-0.5693 -0.68751,-1.03 -1.02321,-1.3821 l 2.66377,-17.85035 1.3283,-1.09595 5.44372,0.81235 0.94102,1.49931 m -15.8872,-5.41212 -3.5139,23.54726 4.53028,6.4998 14.179,2.1159 6.23056,-4.894 3.51389,-23.54725 -4.53973,-6.43652 -14.17899,-2.1159 -6.22111,4.83071 m 5.84978,-6.245 15.31838,2.28592 5.12267,7.30002 -3.69337,24.74992 -7.03076,5.4864 -15.31837,-2.2859 -5.05938,-7.2906 3.69338,-24.74992 6.96745,-5.49584 m 8.3822,11.47482 -4.36764,-0.65177 -0.50921,0.37697 -2.47485,16.58434 c 0.10769,0.1455 0.22705,0.3575 0.35808,0.6358 l 4.24104,0.6329 0.59141,-0.4941 2.48429,-16.64767 -0.32312,-0.43647"
         id="path3035"
         style="" />
      <path
         d="m 260.24038,1010.2735 -5.73868,-6.1606 0.15612,-11.19894 5.90908,-6.06222 17.15034,0.23909 5.80178,6.22548 -0.074,5.31149 -7.35928,-0.1026 0.0446,-3.19969 -2.71069,-2.98207 -8.70315,-0.12134 -2.79278,2.90536 -0.0972,6.97534 2.71159,2.9181 12.92674,0.1802 5.80178,6.2255 -0.15255,10.9429 -5.97308,6.0613 -17.15033,-0.2391 -5.73779,-6.2246 0.0714,-5.1195 7.29529,0.1017 -0.0428,3.0717 2.71248,2.8541 8.70315,0.1214 2.79099,-2.7774 0.0946,-6.7833 -2.7107,-2.9821 -12.92674,-0.1802 m 12.26272,1.8991 1.76595,1.8808 -0.0767,5.5035 c -0.4326,0.4206 -0.75703,0.7361 -0.97329,0.9465 -0.21572,0.1677 -0.49689,0.4411 -0.84352,0.8203 l -7.42328,-0.1035 c -0.37803,-0.432 -0.69383,-0.7351 -0.94741,-0.9093 -0.21036,-0.2163 -0.4835,-0.5188 -0.81943,-0.9075 l 0.0571,-4.0956 -10.49498,-0.1463 -0.10438,7.4873 6.68432,7.1978 18.43021,0.257 6.88236,-7.0088 0.17219,-12.3508 -6.68432,-7.1978 -12.92674,-0.1803 c -0.37803,-0.4319 -0.69354,-0.7563 -0.94652,-0.9732 -0.21036,-0.2163 -0.4835,-0.5188 -0.81943,-0.9076 l 0.0794,-5.6954 1.8177,-1.83084 7.42327,0.10349 1.76596,1.8808 -0.0589,4.22355 10.49498,0.1463 0.10705,-7.67921 -6.68431,-7.19787 -18.43021,-0.25694 -6.88237,7.00874 -0.17486,12.54278 6.68342,7.2619 12.92675,0.1802 m -13.52142,1.1556 -7.44154,-7.9765 0.19181,-13.75866 7.6619,-7.82995 19.58209,0.27299 7.44064,8.0405 -0.13471,9.66302 -13.18272,-0.1837 0.0696,-4.99155 -1.07184,-1.16706 -6.20739,-0.0865 -1.03996,1.13761 -0.0616,4.41553 c 0.12559,0.1725 0.27253,0.3452 0.44082,0.5182 0.16885,0.1304 0.35815,0.3251 0.56791,0.584 l 12.92675,0.1802 7.44064,8.0405 -0.18825,13.5027 -7.66189,7.83 -19.58209,-0.273 -7.44065,-8.0405 0.13204,-9.4711 13.18272,0.1838 -0.0678,4.8635 c 0.12619,0.1298 0.27342,0.2812 0.44171,0.4542 0.16826,0.173 0.35726,0.389 0.56702,0.648 l 6.2074,0.087 c 0.17301,-0.1683 0.34574,-0.3152 0.51819,-0.4408 0.17301,-0.1683 0.36797,-0.3789 0.58487,-0.6319 l 0.0589,-4.2236 -1.07183,-1.1671 -12.86275,-0.1793"
         id="path3037"
         style="" />
      <path
         d="m 310.99569,998.67955 -5.8705,0.4537 1.82466,23.60955 2.10572,-0.1627 0.32055,4.1476 -9.8267,0.7595 -0.32055,-4.1476 2.04191,-0.1579 -1.82465,-23.60955 -5.93431,0.45865 0.16768,2.1695 -3.95621,0.3058 -0.48822,-6.3172 25.46008,-1.96767 0.48822,6.31717 -4.02001,0.3107 -0.16767,-2.16955 m -1.24048,3.88315 7.14669,-0.5524 -0.73479,-9.5076 -28.58676,2.20931 0.7348,9.50769 7.08288,-0.5474 -0.16274,-2.1058 2.80762,-0.2169 1.57315,20.3553 -2.10572,0.1627 0.56712,7.3381 12.95338,-1.0011 -0.56713,-7.3381 -2.04191,0.1578 -1.57314,-20.3553 2.74381,-0.212 0.16274,2.1057 m -1.33537,-0.6671 -0.19143,0.015 1.36603,17.6753 2.10572,-0.1628 0.77424,10.0182 -15.56957,1.2032 -0.77424,-10.0181 2.04191,-0.1578 -1.36603,-17.6753 -0.19143,0.015 0.16274,2.1057 -9.69908,0.7496 -0.94191,-12.18763 31.20295,-2.4115 0.94192,12.18763 -9.69908,0.7496 -0.16274,-2.1057"
         id="path3039"
         style="" />
      <path
         d="m 337.49855,994.34084 -2.52156,0.44196 11.78994,22.0395 1.44989,-0.2541 0.70714,4.0345 -9.5189,1.6684 -0.70713,-4.0345 1.95421,-0.3425 -2.86348,-5.216 -9.45586,1.6573 -0.85582,5.8679 1.89117,-0.3315 0.70714,4.0345 -9.5189,1.6684 -0.70713,-4.0345 1.51293,-0.2652 3.5916,-24.73541 -2.26941,0.39776 -0.71818,-4.09753 14.81417,-2.59652 0.71818,4.09754 m -1.16373,15.60316 -5.75232,-10.94726 -1.81236,12.27316 7.56468,-1.3259 m -5.69758,-0.6257 c 0.15204,-1.1096 0.28786,-2.0647 0.40744,-2.8654 0.11219,-0.8427 0.24908,-1.668 0.41069,-2.4761 0.37737,0.6703 0.66961,1.2255 0.87673,1.6657 0.24911,0.4328 0.44885,0.831 0.59921,1.1945 0.18499,0.3141 0.34898,0.6319 0.49198,0.9533 0.1356,0.2795 0.29959,0.5973 0.49198,0.9534 l -3.27803,0.5746 m 7.37984,-20.91615 -17.90308,3.13791 1.27063,7.24949 1.63901,-0.28727 c -0.30629,1.95962 -0.58528,3.82792 -0.83698,5.60462 -0.21704,1.7275 -0.45509,3.4585 -0.71415,5.1933 -0.22441,1.6854 -0.46614,3.3955 -0.7252,5.1302 -0.25907,1.7348 -0.52442,3.5573 -0.79604,5.4676 l -1.89117,0.3314 1.27063,7.2495 12.60781,-2.2098 -1.27064,-7.2495 -1.26078,0.221 c 0.0849,-0.7513 0.15096,-1.2393 0.1982,-1.4642 0.0398,-0.2669 0.086,-0.6215 0.13841,-1.0639 l 7.18645,-1.2595 c 0.25648,0.4748 0.48091,0.8903 0.6733,1.2464 0.19235,0.3562 0.38104,0.6913 0.56607,1.0054 l -1.32382,0.232 1.27063,7.2495 12.67085,-2.2208 -1.27063,-7.2495 -1.95421,0.3425 c -1.75348,-3.3313 -3.46013,-6.5192 -5.11996,-9.5637 -1.62522,-3.0938 -3.28616,-6.26809 -4.98283,-9.52274 l 1.82813,-0.32042 -1.27063,-7.24949 m 2.83753,8.40432 -1.38686,0.24308 c 1.48956,2.81446 2.9187,5.53115 4.28743,8.15015 1.36131,2.5771 2.86822,5.3668 4.52074,8.3692 l 2.33245,-0.4088 1.73469,9.8972 -15.31849,2.6849 -1.69049,-9.645 -3.53019,0.6187 1.69049,9.645 -15.25544,2.6739 -1.73469,-9.8972 2.2694,-0.3977 c 0.25907,-1.7348 0.48087,-3.3114 0.66542,-4.7299 0.21921,-1.4679 0.42109,-2.9111 0.60564,-4.3296 0.22657,-1.4258 0.44578,-2.8937 0.65763,-4.4036 0.25386,-1.5173 0.52029,-3.21 0.79929,-5.0783 l -1.19774,0.2099 -1.74574,-9.96013 20.55072,-3.60196 1.74574,9.96016"
         id="path3041"
         style="" />
      <path
         d="m 364.82759,986.75377 -5.63718,1.7002 6.83776,22.67133 2.02203,-0.6099 1.20123,3.9828 -9.43616,2.846 -1.20123,-3.9828 1.96076,-0.5914 -6.83776,-22.67127 -5.69846,1.71868 0.62834,2.08331 -3.79897,1.14578 -1.82957,-6.0661 24.44823,-7.37369 1.82957,6.0661 -3.86025,1.16427 -0.62834,-2.08331 m -0.38022,4.05868 6.86266,-2.06981 -2.75358,-9.12979 -27.45065,8.27924 2.75359,9.12979 6.80138,-2.05133 -0.60985,-2.02204 2.69604,-0.81313 5.89526,19.54632 -2.02203,0.6099 2.12525,7.0464 12.43857,-3.7515 -2.12525,-7.0465 -1.96076,0.5914 -5.89526,-19.54632 2.63478,-0.79466 0.60985,2.02203 m -1.44724,-0.36567 -0.18382,0.0554 5.11908,16.97278 2.02203,-0.6098 2.90143,9.62 -14.9508,4.5092 -2.90143,-9.62 1.96076,-0.5914 -5.11908,-16.97279 -0.18382,0.0555 0.60986,2.02203 -9.31361,2.80902 -3.52977,-11.70328 29.96287,-9.03693 3.52977,11.70328 -9.31362,2.80903 -0.60985,-2.02203"
         id="path3043"
         style="" />
      <path
         d="m 403.89668,1000.5544 -19.21023,8.621 -1.67704,-3.7369 1.81008,-0.8123 -9.72161,-21.66263 -1.81008,0.81232 -1.70325,-3.79533 19.21023,-8.62105 2.27973,5.0799 -3.50339,1.57223 -0.57648,-1.28457 -8.81685,3.95677 4.00918,8.93363 4.61279,-2.0701 -0.57648,-1.28457 3.56177,-1.59843 2.88242,6.42287 -3.56178,1.59843 -0.60268,-1.34297 -4.61279,2.0701 4.00918,8.9336 8.81685,-3.95674 -0.57649,-1.28457 3.50339,-1.57223 2.25353,5.02154 m -1.59187,-7.14236 -6.2477,2.8038 0.60269,1.34297 -6.01414,2.69899 -2.69899,-6.01414 1.86847,-0.83853 0.60268,1.34297 6.24771,-2.80381 -4.19261,-9.34236 -6.2477,2.80381 0.57648,1.28458 -1.86847,0.83852 -2.69899,-6.01415 6.01414,-2.69899 0.57648,1.28458 6.24771,-2.80381 -3.58993,-7.99939 -21.95453,9.85263 3.01343,6.71482 1.86847,-0.83853 8.41142,18.7431 -1.86847,0.8385 3.01344,6.7148 21.95454,-9.8526 -3.61613,-8.05776 m 5.3342,8.75986 -24.29013,10.9008 -4.11399,-9.1672 1.86847,-0.8385 -7.28466,-16.23235 -1.86847,0.83853 -4.1402,-9.22558 24.29013,-10.90078 4.69048,10.45176 -8.58329,3.85196 -0.55028,-1.22619 -3.67855,1.65084 0.96954,2.16042 8.11617,-3.64233 5.31937,11.85312 -8.11617,3.64233 0.99574,2.21881 3.67856,-1.65084 -0.60269,-1.34296 8.58329,-3.85196 4.71668,10.51012"
         id="path3045"
         style="" />
    </g>
  </g>
</svg>
